<?xml version="1.0" encoding="utf-8"?>
<!-- Generator: Adobe Illustrator 19.0.0, SVG Export Plug-In . SVG Version: 6.00 Build 0)  -->
<svg version="1.0" id="Layer_1" xmlns="http://www.w3.org/2000/svg" xmlns:xlink="http://www.w3.org/1999/xlink" x="0px" y="0px"
	 viewBox="0 0 200 200" style="enable-background:new 0 0 200 200;" xml:space="preserve">
<style type="text/css">
	.st1{fill:#FFFFFF;}
</style>
<path id="o" class="st1" d="M128.8,136.5c-24.3,0-48.6,0-72.9,0c0-24.3,0-48.6,0-72.9c24.3,0,48.6,0,72.9,0
	C128.8,87.9,128.8,112.1,128.8,136.5z M63.4,71.1c0,19.3,0,38.6,0,57.9c19.3,0,38.5,0,57.8,0c0-19.3,0-38.6,0-57.9
	C101.9,71.1,82.7,71.1,63.4,71.1z"/>
<path id="i" class="st1" d="M136.6,63.5c2.5,0,5,0,7.5,0c0,24.3,0,48.5,0,72.8c-2.5,0-4.9,0-7.5,0
	C136.6,112.1,136.6,87.9,136.6,63.5z"/>
</svg>